HIERARCHY
ROOT Hips
{
	OFFSET 0.000000 0.000000 0.000000
	CHANNELS 6 Xposition Yposition Zposition Zrotation Yrotation Xrotation 
	JOINT LHipJoint
	{
		OFFSET 0.000000 0.000000 0.000000
		CHANNELS 3 Zrotation Yrotation Xrotation
		JOINT LeftUpLeg
		{
			OFFSET 1.363060 -1.794630 0.839290
			CHANNELS 3 Zrotation Yrotation Xrotation
			JOINT LeftLeg
			{
				OFFSET 2.448110 -6.726130 0.000000
				CHANNELS 3 Zrotation Yrotation Xrotation
				JOINT LeftFoot
				{
					OFFSET 2.562200 -7.039590 0.000000
					CHANNELS 3 Zrotation Yrotation Xrotation
					JOINT LeftToeBase
					{
						OFFSET 0.157640 -0.433110 2.322550
						CHANNELS 3 Zrotation Yrotation Xrotation
						End Site
						{
							OFFSET 0.000000 0.000000 0.000000
						}
					}
				}
			}
		}
	}
	JOINT RHipJoint
	{
		OFFSET 0.000000 0.000000 0.000000
		CHANNELS 3 Zrotation Yrotation Xrotation
		JOINT RightUpLeg
		{
			OFFSET -1.305520 -1.794630 0.839290
			CHANNELS 3 Zrotation Yrotation Xrotation
			JOINT RightLeg
			{
				OFFSET -2.542530 -6.985550 0.000000
				CHANNELS 3 Zrotation Yrotation Xrotation
				JOINT RightFoot
				{
					OFFSET -2.568260 -7.056230 0.000000
					CHANNELS 3 Zrotation Yrotation Xrotation
					JOINT RightToeBase
					{
						OFFSET -0.164730 -0.452590 2.363150
						CHANNELS 3 Zrotation Yrotation Xrotation
						End Site
						{
							OFFSET 0.000000 0.000000 0.000000
						}
					}
				}
			}
		}
	}
	JOINT LowerBack
	{
		OFFSET 0.000000 0.000000 0.000000
		CHANNELS 3 Zrotation Yrotation Xrotation
		JOINT Spine
		{
			OFFSET 0.028270 2.035590 -0.193380
			CHANNELS 3 Zrotation Yrotation Xrotation
			JOINT Spine1
			{
				OFFSET 0.056720 2.048850 -0.042750
				CHANNELS 3 Zrotation Yrotation Xrotation
				JOINT Neck
				{
					OFFSET 0.000000 0.000000 0.000000
					CHANNELS 3 Zrotation Yrotation Xrotation
					JOINT Neck1
					{
						OFFSET -0.054170 1.746240 0.172020
						CHANNELS 3 Zrotation Yrotation Xrotation
						JOINT Head
						{
							OFFSET 0.104070 1.761360 -0.123970
							CHANNELS 3 Zrotation Yrotation Xrotation
							End Site
							{
								OFFSET 0.000000 0.000000 0.000000
							}
						}
					}
				}
				JOINT LeftShoulder
				{
					OFFSET 0.000000 0.000000 0.000000
					CHANNELS 3 Zrotation Yrotation Xrotation
					JOINT LeftArm
					{
						OFFSET 3.362410 1.200890 -0.311210
						CHANNELS 3 Zrotation Yrotation Xrotation
						JOINT LeftForeArm
						{
							OFFSET 4.983000 -0.000000 -0.000000
							CHANNELS 3 Zrotation Yrotation Xrotation
							JOINT LeftHand
							{
								OFFSET 3.483560 -0.000000 -0.000000
								CHANNELS 3 Zrotation Yrotation Xrotation
								JOINT LeftFingerBase
								{
									OFFSET 0.000000 0.000000 0.000000
									CHANNELS 3 Zrotation Yrotation Xrotation
									JOINT LeftHandIndex1
									{
										OFFSET 0.715260 -0.000000 -0.000000
										CHANNELS 3 Zrotation Yrotation Xrotation
										End Site
										{
											OFFSET 0.000000 0.000000 0.000000
										}
									}
								}
								JOINT LThumb
								{
									OFFSET 0.000000 0.000000 0.000000
									CHANNELS 3 Zrotation Yrotation Xrotation
									End Site
									{
										OFFSET 0.000000 0.000000 0.000000
									}
								}
							}
						}
					}
				}
				JOINT RightShoulder
				{
					OFFSET 0.000000 0.000000 0.000000
					CHANNELS 3 Zrotation Yrotation Xrotation
					JOINT RightArm
					{
						OFFSET -3.136600 1.374050 -0.404650
						CHANNELS 3 Zrotation Yrotation Xrotation
						JOINT RightForeArm
						{
							OFFSET -5.241900 -0.000000 -0.000000
							CHANNELS 3 Zrotation Yrotation Xrotation
							JOINT RightHand
							{
								OFFSET -3.444170 -0.000000 -0.000000
								CHANNELS 3 Zrotation Yrotation Xrotation
								JOINT RightFingerBase
								{
									OFFSET 0.000000 0.000000 0.000000
									CHANNELS 3 Zrotation Yrotation Xrotation
									JOINT RightHandIndex1
									{
										OFFSET -0.622530 -0.000000 -0.000000
										CHANNELS 3 Zrotation Yrotation Xrotation
										End Site
										{
											OFFSET 0.000000 0.000000 0.000000
										}
									}
								}
								JOINT RThumb
								{
									OFFSET 0.000000 0.000000 0.000000
									CHANNELS 3 Zrotation Yrotation Xrotation
									End Site
									{
										OFFSET 0.000000 0.000000 0.000000
									}
								}
							}
						}
					}
				}
			}
		}
	}
}
MOTION
Frames: 6
Frame Time: 0.008333
0.224392 17.222435 -0.690915 1.392901 -1.406017 -8.436405 5.150663 3.193732 1.107882 -21.730192 -7.001267 -0.817871 1.588729 9.032805 30.053070 0.293741 0.092889 -5.906323 0.710500 -5.387200 -15.016400 -5.621185 -2.458672 0.537010 21.630620 11.003230 -1.213478 -3.412682 -11.283578 35.110070 0.424069 -6.131282 -12.716785 -1.121300 6.726500 -18.907700 -1.642090 -0.029625 2.469686 -0.467847 -0.146398 2.093055 -1.405082 0.036728 -6.582277 -17.750217 -8.352670 -1.761039 15.840611 -10.336229 -4.813141 8.420500 -5.052300 0.756500 -4.186313 -5.060357 2.358261 133.902603 -74.924672 171.780559 29.493313 -41.567942 -9.617016 -0.109074 1.941142 -52.374768 20.496321 30.791638 9.708000 -7.125000 0.000000 0.000000 -14.163100 60.587500 -5.445900 4.613968 5.470409 0.162694 -122.359428 79.101889 -173.354528 -26.492693 44.227680 -9.668133 0.377792 1.107971 -10.821319 -10.512490 14.349771 -2.581600 7.125000 0.000000 0.000000 11.166100 -16.608400 7.656800 
0.222175 17.226648 -0.690139 1.431298 -1.384407 -8.373615 5.149015 3.192957 1.108664 -21.780499 -7.077765 -0.801991 1.566075 9.007549 29.958464 0.272639 0.193808 -5.890837 0.703000 -5.359200 -14.935900 -5.618338 -2.456739 0.534220 21.574144 10.985419 -1.254394 -3.399152 -11.266396 35.048124 0.428893 -6.152089 -12.706868 -1.086100 6.623500 -18.604500 -1.674529 -0.017889 2.474702 -0.468978 -0.130025 2.096046 -1.397242 0.043283 -6.591176 -17.732789 -8.459449 -2.413950 15.874863 -10.391415 -4.758939 8.397700 -5.050400 0.883600 -4.177646 -5.079779 2.318326 133.668057 -74.992246 172.429310 30.442774 -42.478612 -10.251905 -0.097523 1.902315 -52.479747 20.476778 30.644869 9.675600 -7.125000 0.000000 0.000000 -14.083000 60.475100 -5.376600 4.604897 5.470403 0.237276 -121.537575 78.989579 -172.405893 -27.372957 45.094202 -10.224814 0.376363 1.153919 -10.836267 -10.972970 14.820912 -2.777100 7.125000 0.000000 0.000000 10.836000 -16.158000 7.529800 
0.219292 17.230861 -0.688920 1.314006 -1.381914 -8.253919 5.144528 3.192881 1.108271 -21.632591 -7.149798 -0.863761 1.545487 8.982416 29.863468 0.260439 0.246567 -5.842970 0.707600 -5.376200 -14.984800 -5.618053 -2.450007 0.533251 21.704997 11.009839 -1.330363 -3.381023 -11.254840 34.982400 0.451554 -6.269602 -12.704916 -1.082800 6.613700 -18.575900 -1.529199 0.008845 2.416230 -0.445225 -0.081372 2.097523 -1.477074 0.059507 -6.615255 -17.752724 -8.579129 -2.716338 15.985694 -10.484841 -4.967733 8.426100 -5.075800 0.888900 -4.162302 -5.120583 2.327350 133.513144 -75.019757 173.023496 31.434612 -43.379652 -10.918672 -0.089820 1.874300 -52.496692 20.545351 30.692748 9.742500 -7.125000 0.000000 0.000000 -14.035900 60.564800 -5.388300 4.578551 5.526609 0.175152 -121.281611 79.306579 -171.990726 -28.519860 46.071339 -10.916640 0.363953 1.203335 -10.732799 -11.567616 15.449046 -3.041700 7.125000 0.000000 0.000000 10.424300 -15.546800 7.373700 
0.217186 17.233965 -0.687922 1.230756 -1.412367 -8.181885 5.141706 3.195871 1.108788 -21.538882 -7.198899 -0.888705 1.527389 8.961548 29.785040 0.231430 0.396184 -5.846729 0.747900 -5.523800 -15.408900 -5.617845 -2.443241 0.531832 21.801010 11.046418 -1.367175 -3.366771 -11.242619 34.925154 0.466474 -6.332193 -12.663071 -1.121000 6.725600 -18.905000 -1.391550 0.032267 2.398810 -0.443918 -0.035856 2.111630 -1.570777 0.072490 -6.633161 -17.725742 -8.677539 -2.818016 16.107094 -10.547615 -5.449935 8.465900 -5.092700 0.767100 -4.147650 -5.150568 2.307785 133.320602 -75.087038 173.709476 32.466456 -44.282437 -11.624602 -0.074428 1.848043 -52.487078 20.729742 30.693473 9.857200 -7.125000 0.000000 0.000000 -13.839700 60.641400 -5.336500 4.561295 5.565928 0.184874 -120.862894 79.408538 -171.503789 -29.702282 47.086184 -11.695796 0.360238 1.213512 -10.571853 -11.711503 15.336707 -3.051100 7.125000 0.000000 0.000000 10.331700 -15.662500 7.279700 
0.214858 17.238289 -0.687146 1.356242 -1.397823 -8.118232 5.141867 3.190568 1.108765 -21.689878 -7.294169 -0.879670 1.508462 8.947667 29.718305 0.215785 0.481326 -5.875582 0.759800 -5.566900 -15.532800 -5.615369 -2.441549 0.528798 21.651937 11.058656 -1.389440 -3.360511 -11.227978 34.882484 0.458010 -6.250224 -12.556712 -1.046100 6.504300 -18.254700 -1.501787 0.033489 2.434517 -0.476668 -0.039651 2.111465 -1.548812 0.073004 -6.685445 -17.760418 -8.733710 -2.844667 16.271908 -10.548116 -6.046626 8.540900 -5.080800 0.593200 -4.134780 -5.177592 2.262541 132.946170 -75.225915 174.546758 33.556031 -45.203041 -12.383022 -0.059755 1.821768 -52.412969 20.875017 30.737630 9.964100 -7.125000 0.000000 0.000000 -13.711800 60.749200 -5.321300 4.550613 5.600688 0.241532 -120.426895 79.339064 -170.911598 -30.955957 48.139412 -12.558180 0.350186 1.208744 -10.531238 -11.757385 14.928080 -2.974200 7.125000 0.000000 0.000000 10.314600 -16.066300 7.175800 
0.214303 17.240950 -0.686370 1.487399 -1.372953 -8.061325 5.142422 3.186529 1.110471 -21.858216 -7.398236 -0.857480 1.491942 8.937696 29.664642 0.201144 0.567664 -5.927118 0.753800 -5.545300 -15.470800 -5.611518 -2.441681 0.524687 21.482644 11.014626 -1.374300 -3.357052 -11.208668 34.839089 0.419907 -6.005875 -12.431131 -0.889800 6.012700 -16.821300 -1.602614 0.028192 2.462547 -0.498923 -0.050681 2.119548 -1.513469 0.068791 -6.700640 -17.883360 -8.807233 -2.919230 16.432697 -10.576943 -6.562312 8.625700 -5.082300 0.460100 -4.124037 -5.197799 2.202268 132.543616 -75.322981 175.317738 34.687125 -46.126702 -13.188696 -0.038331 1.781046 -52.288711 20.865896 30.571977 9.932000 -7.125000 0.000000 0.000000 -13.609900 60.623600 -5.240200 4.546203 5.607049 0.355288 -119.827400 79.105363 -170.155267 -32.101980 49.085341 -13.359495 0.343281 1.219926 -10.482855 -11.906045 14.843417 -2.988700 7.125000 0.000000 0.000000 10.218700 -16.155000 7.086800 
